<svg width="340" height="165" viewBox="0 0 340 165" xmlns="http://www.w3.org/2000/svg" role="img">
  <rect x="0.5" y="0.5" width="339" height="164" rx="6"
        fill="#ffffff" stroke="#d0d7de"/>
  <text x="25" y="35" font-family="-apple-system,BlinkMacSystemFont,Segoe UI,Ubuntu,Helvetica,Arial,sans-serif" font-size="16" font-weight="600"
        fill="#0969da">Most used languages</text>
  <clipPath id="bar"><rect x="25" y="55" width="290" height="10" rx="5"/></clipPath>
  <rect x="25" y="55" width="290" height="10" rx="5" fill="#eaeef2"/>
  <g clip-path="url(#bar)">
    <rect x="25.00" y="55" width="100.17" height="10" fill="#3572A5"/>
    <rect x="125.17" y="55" width="52.95" height="10" fill="#DA5B0B"/>
    <rect x="178.12" y="55" width="31.12" height="10" fill="#e34c26"/>
    <rect x="209.24" y="55" width="29.30" height="10" fill="#f1e05a"/>
    <rect x="238.54" y="55" width="19.33" height="10" fill="#178600"/>
    <rect x="257.87" y="55" width="18.72" height="10" fill="#00B4AB"/>
  </g>
  <circle cx="30" cy="86" r="5" fill="#3572A5"/>
  <text x="41" y="90" font-family="-apple-system,BlinkMacSystemFont,Segoe UI,Ubuntu,Helvetica,Arial,sans-serif" font-size="12" fill="#1f2328">Python <tspan fill="#656d76">34.5%</tspan></text>
  <circle cx="180" cy="86" r="5" fill="#DA5B0B"/>
  <text x="191" y="90" font-family="-apple-system,BlinkMacSystemFont,Segoe UI,Ubuntu,Helvetica,Arial,sans-serif" font-size="12" fill="#1f2328">Jupyter Notebook <tspan fill="#656d76">18.3%</tspan></text>
  <circle cx="30" cy="108" r="5" fill="#e34c26"/>
  <text x="41" y="112" font-family="-apple-system,BlinkMacSystemFont,Segoe UI,Ubuntu,Helvetica,Arial,sans-serif" font-size="12" fill="#1f2328">HTML <tspan fill="#656d76">10.7%</tspan></text>
  <circle cx="180" cy="108" r="5" fill="#f1e05a"/>
  <text x="191" y="112" font-family="-apple-system,BlinkMacSystemFont,Segoe UI,Ubuntu,Helvetica,Arial,sans-serif" font-size="12" fill="#1f2328">JavaScript <tspan fill="#656d76">10.1%</tspan></text>
  <circle cx="30" cy="130" r="5" fill="#178600"/>
  <text x="41" y="134" font-family="-apple-system,BlinkMacSystemFont,Segoe UI,Ubuntu,Helvetica,Arial,sans-serif" font-size="12" fill="#1f2328">C# <tspan fill="#656d76">6.7%</tspan></text>
  <circle cx="180" cy="130" r="5" fill="#00B4AB"/>
  <text x="191" y="134" font-family="-apple-system,BlinkMacSystemFont,Segoe UI,Ubuntu,Helvetica,Arial,sans-serif" font-size="12" fill="#1f2328">Dart <tspan fill="#656d76">6.5%</tspan></text>
</svg>
